<svg width="17" height="20" viewBox="0 0 17 20" fill="none" xmlns="http://www.w3.org/2000/svg">
<path d="M15.5541 17.4988C14.6845 18.7388 13.7625 19.9487 12.3586 19.9687C10.9546 19.9987 10.5041 19.1787 8.91154 19.1787C7.30852 19.1787 6.81609 19.9487 5.48547 19.9987C4.11295 20.0487 3.0757 18.6788 2.19561 17.4688C0.403993 14.999 -0.96853 10.4493 0.875471 7.38951C1.78699 5.86961 3.42145 4.90967 5.19211 4.87968C6.5332 4.85968 7.81143 5.74962 8.63913 5.74962C9.45636 5.74962 11.007 4.67969 12.631 4.83968C13.312 4.86968 15.2189 5.09966 16.4447 6.81955C16.3504 6.87954 14.1711 8.09946 14.1921 10.6293C14.2235 13.6491 16.9686 14.659 17 14.669C16.9686 14.739 16.56 16.1089 15.5541 17.4988ZM9.57161 1.4999C10.3365 0.669955 11.6042 0.0399973 12.6519 0C12.7881 1.16992 12.2957 2.34984 11.5623 3.18979C10.8394 4.03973 9.64495 4.69969 8.4715 4.60969C8.31434 3.45977 8.90107 2.25985 9.57161 1.4999Z" fill="#121212"/>
</svg>
