<svg width="186" height="48" viewBox="0 0 186 48" fill="none" xmlns="http://www.w3.org/2000/svg">
<path d="M0 1.65625H16.9688C20.4479 1.65625 23.4375 2.17708 25.9375 3.21875C28.4583 4.26042 30.3958 5.80208 31.75 7.84375C33.1042 9.88542 33.7812 12.3958 33.7812 15.375C33.7812 17.8125 33.3646 19.9062 32.5312 21.6562C31.7188 23.3854 30.5625 24.8333 29.0625 26C27.5833 27.1458 25.8438 28.0625 23.8438 28.75L20.875 30.3125H6.125L6.0625 23H17.0312C18.6771 23 20.0417 22.7083 21.125 22.125C22.2083 21.5417 23.0208 20.7292 23.5625 19.6875C24.125 18.6458 24.4062 17.4375 24.4062 16.0625C24.4062 14.6042 24.1354 13.3438 23.5938 12.2812C23.0521 11.2188 22.2292 10.4062 21.125 9.84375C20.0208 9.28125 18.6354 9 16.9688 9H9.375V47.1562H0V1.65625ZM25.4375 47.1562L15.0625 26.875L24.9688 26.8125L35.4688 46.7188V47.1562H25.4375ZM56 47.7812C53.375 47.7812 51.0208 47.3646 48.9375 46.5312C46.8542 45.6771 45.0833 44.5 43.625 43C42.1875 41.5 41.0833 39.7604 40.3125 37.7812C39.5417 35.7812 39.1562 33.6562 39.1562 31.4062V30.1562C39.1562 27.5938 39.5208 25.25 40.25 23.125C40.9792 21 42.0208 19.1562 43.375 17.5938C44.75 16.0312 46.4167 14.8333 48.375 14C50.3333 13.1458 52.5417 12.7188 55 12.7188C57.3958 12.7188 59.5208 13.1146 61.375 13.9062C63.2292 14.6979 64.7812 15.8229 66.0312 17.2812C67.3021 18.7396 68.2604 20.4896 68.9062 22.5312C69.5521 24.5521 69.875 26.8021 69.875 29.2812V33.0312H43V27.0312H61.0312V26.3438C61.0312 25.0938 60.8021 23.9792 60.3438 23C59.9062 22 59.2396 21.2083 58.3438 20.625C57.4479 20.0417 56.3021 19.75 54.9062 19.75C53.7188 19.75 52.6979 20.0104 51.8438 20.5312C50.9896 21.0521 50.2917 21.7812 49.75 22.7188C49.2292 23.6562 48.8333 24.7604 48.5625 26.0312C48.3125 27.2812 48.1875 28.6562 48.1875 30.1562V31.4062C48.1875 32.7604 48.375 34.0104 48.75 35.1562C49.1458 36.3021 49.6979 37.2917 50.4062 38.125C51.1354 38.9583 52.0104 39.6042 53.0312 40.0625C54.0729 40.5208 55.25 40.75 56.5625 40.75C58.1875 40.75 59.6979 40.4375 61.0938 39.8125C62.5104 39.1667 63.7292 38.1979 64.75 36.9062L69.125 41.6562C68.4167 42.6771 67.4479 43.6562 66.2188 44.5938C65.0104 45.5312 63.5521 46.3021 61.8438 46.9062C60.1354 47.4896 58.1875 47.7812 56 47.7812Z" fill="#FF9800"/>
<path d="M86.0625 40.5938L93.5625 13.3438H102.969L91.5625 47.1562H85.875L86.0625 40.5938ZM80.9062 13.3438L88.4375 40.625L88.5938 47.1562H82.875L71.4688 13.3438H80.9062ZM116.5 13.3438V47.1562H107.469V13.3438H116.5ZM106.906 4.53125C106.906 3.21875 107.365 2.13542 108.281 1.28125C109.198 0.427083 110.427 0 111.969 0C113.49 0 114.708 0.427083 115.625 1.28125C116.562 2.13542 117.031 3.21875 117.031 4.53125C117.031 5.84375 116.562 6.92708 115.625 7.78125C114.708 8.63542 113.49 9.0625 111.969 9.0625C110.427 9.0625 109.198 8.63542 108.281 7.78125C107.365 6.92708 106.906 5.84375 106.906 4.53125ZM135.438 40.5938L142.938 13.3438H152.344L140.938 47.1562H135.25L135.438 40.5938ZM130.281 13.3438L137.812 40.625L137.969 47.1562H132.25L120.844 13.3438H130.281ZM171.5 47.7812C168.875 47.7812 166.521 47.3646 164.438 46.5312C162.354 45.6771 160.583 44.5 159.125 43C157.688 41.5 156.583 39.7604 155.812 37.7812C155.042 35.7812 154.656 33.6562 154.656 31.4062V30.1562C154.656 27.5938 155.021 25.25 155.75 23.125C156.479 21 157.521 19.1562 158.875 17.5938C160.25 16.0312 161.917 14.8333 163.875 14C165.833 13.1458 168.042 12.7188 170.5 12.7188C172.896 12.7188 175.021 13.1146 176.875 13.9062C178.729 14.6979 180.281 15.8229 181.531 17.2812C182.802 18.7396 183.76 20.4896 184.406 22.5312C185.052 24.5521 185.375 26.8021 185.375 29.2812V33.0312H158.5V27.0312H176.531V26.3438C176.531 25.0938 176.302 23.9792 175.844 23C175.406 22 174.74 21.2083 173.844 20.625C172.948 20.0417 171.802 19.75 170.406 19.75C169.219 19.75 168.198 20.0104 167.344 20.5312C166.49 21.0521 165.792 21.7812 165.25 22.7188C164.729 23.6562 164.333 24.7604 164.062 26.0312C163.812 27.2812 163.688 28.6562 163.688 30.1562V31.4062C163.688 32.7604 163.875 34.0104 164.25 35.1562C164.646 36.3021 165.198 37.2917 165.906 38.125C166.635 38.9583 167.51 39.6042 168.531 40.0625C169.573 40.5208 170.75 40.75 172.062 40.75C173.688 40.75 175.198 40.4375 176.594 39.8125C178.01 39.1667 179.229 38.1979 180.25 36.9062L184.625 41.6562C183.917 42.6771 182.948 43.6562 181.719 44.5938C180.51 45.5312 179.052 46.3021 177.344 46.9062C175.635 47.4896 173.688 47.7812 171.5 47.7812Z" fill="#2E7D32"/>
</svg>
